<mxfile host="app.diagrams.net" modified="2022-08-01T02:44:01.933Z" agent="5.0 (Windows NT 10.0; Win64; x64) AppleWebKit/537.36 (KHTML, like Gecko) Chrome/103.0.0.0 Safari/537.36" etag="huOZrrwCILG_9GfMqDaO" version="20.2.2" type="github">
  <diagram id="bmnagnj3rZfl1fzkkhQH" name="Page-1">
    <mxGraphModel dx="1038" dy="579" grid="1" gridSize="10" guides="1" tooltips="1" connect="1" arrows="1" fold="1" page="1" pageScale="1" pageWidth="850" pageHeight="1100" math="0" shadow="0">
      <root>
        <mxCell id="0" />
        <mxCell id="1" parent="0" />
        <mxCell id="9WmN0nyqYOezBfgbIUZS-2" value="Login" style="swimlane;childLayout=stackLayout;resizeParent=1;resizeParentMax=0;startSize=20;" vertex="1" parent="1">
          <mxGeometry x="160" y="50" width="510" height="790" as="geometry" />
        </mxCell>
        <mxCell id="9WmN0nyqYOezBfgbIUZS-3" value="Login" style="swimlane;startSize=20;" vertex="1" parent="9WmN0nyqYOezBfgbIUZS-2">
          <mxGeometry y="20" width="270" height="770" as="geometry" />
        </mxCell>
        <mxCell id="9WmN0nyqYOezBfgbIUZS-27" value="" style="edgeStyle=orthogonalEdgeStyle;rounded=0;orthogonalLoop=1;jettySize=auto;html=1;" edge="1" parent="9WmN0nyqYOezBfgbIUZS-3" target="9WmN0nyqYOezBfgbIUZS-26">
          <mxGeometry relative="1" as="geometry">
            <mxPoint x="60" y="60" as="sourcePoint" />
          </mxGeometry>
        </mxCell>
        <mxCell id="9WmN0nyqYOezBfgbIUZS-16" value="" style="edgeStyle=orthogonalEdgeStyle;rounded=0;orthogonalLoop=1;jettySize=auto;html=1;" edge="1" parent="9WmN0nyqYOezBfgbIUZS-3" source="9WmN0nyqYOezBfgbIUZS-7" target="9WmN0nyqYOezBfgbIUZS-15">
          <mxGeometry relative="1" as="geometry" />
        </mxCell>
        <mxCell id="9WmN0nyqYOezBfgbIUZS-7" value="Input Username&lt;br&gt;&amp;amp;&lt;br&gt;Pin" style="html=1;strokeWidth=2;shape=manualInput;whiteSpace=wrap;rounded=1;size=26;arcSize=11;" vertex="1" parent="9WmN0nyqYOezBfgbIUZS-3">
          <mxGeometry x="20" y="310" width="80" height="90" as="geometry" />
        </mxCell>
        <mxCell id="9WmN0nyqYOezBfgbIUZS-13" value="" style="edgeStyle=orthogonalEdgeStyle;rounded=0;orthogonalLoop=1;jettySize=auto;html=1;" edge="1" parent="9WmN0nyqYOezBfgbIUZS-3" source="9WmN0nyqYOezBfgbIUZS-11" target="9WmN0nyqYOezBfgbIUZS-7">
          <mxGeometry relative="1" as="geometry" />
        </mxCell>
        <mxCell id="9WmN0nyqYOezBfgbIUZS-11" value="Have Account?" style="strokeWidth=2;html=1;shape=mxgraph.flowchart.decision;whiteSpace=wrap;" vertex="1" parent="9WmN0nyqYOezBfgbIUZS-3">
          <mxGeometry x="20" y="190" width="80" height="80" as="geometry" />
        </mxCell>
        <mxCell id="9WmN0nyqYOezBfgbIUZS-14" style="edgeStyle=orthogonalEdgeStyle;rounded=0;orthogonalLoop=1;jettySize=auto;html=1;exitX=0.5;exitY=1;exitDx=0;exitDy=0;" edge="1" parent="9WmN0nyqYOezBfgbIUZS-3" source="9WmN0nyqYOezBfgbIUZS-7" target="9WmN0nyqYOezBfgbIUZS-7">
          <mxGeometry relative="1" as="geometry" />
        </mxCell>
        <mxCell id="9WmN0nyqYOezBfgbIUZS-40" value="" style="edgeStyle=orthogonalEdgeStyle;rounded=0;orthogonalLoop=1;jettySize=auto;html=1;" edge="1" parent="9WmN0nyqYOezBfgbIUZS-3" source="9WmN0nyqYOezBfgbIUZS-15" target="9WmN0nyqYOezBfgbIUZS-39">
          <mxGeometry relative="1" as="geometry" />
        </mxCell>
        <mxCell id="9WmN0nyqYOezBfgbIUZS-15" value="Click Login&lt;br&gt;Button" style="verticalLabelPosition=middle;verticalAlign=middle;html=1;shape=trapezoid;perimeter=trapezoidPerimeter;whiteSpace=wrap;size=0.23;arcSize=10;flipV=1;labelPosition=center;align=center;" vertex="1" parent="9WmN0nyqYOezBfgbIUZS-3">
          <mxGeometry x="20" y="450" width="80" height="40" as="geometry" />
        </mxCell>
        <mxCell id="9WmN0nyqYOezBfgbIUZS-26" value="Login Display" style="strokeWidth=2;html=1;shape=mxgraph.flowchart.display;whiteSpace=wrap;" vertex="1" parent="9WmN0nyqYOezBfgbIUZS-3">
          <mxGeometry x="15" y="100" width="90" height="50" as="geometry" />
        </mxCell>
        <mxCell id="9WmN0nyqYOezBfgbIUZS-31" value="Start" style="strokeWidth=2;html=1;shape=mxgraph.flowchart.start_1;whiteSpace=wrap;" vertex="1" parent="9WmN0nyqYOezBfgbIUZS-3">
          <mxGeometry x="27.5" y="30" width="65" height="30" as="geometry" />
        </mxCell>
        <mxCell id="9WmN0nyqYOezBfgbIUZS-17" value="Yes" style="text;html=1;align=center;verticalAlign=middle;resizable=0;points=[];autosize=1;strokeColor=none;fillColor=none;" vertex="1" parent="9WmN0nyqYOezBfgbIUZS-3">
          <mxGeometry x="52.5" y="270" width="40" height="30" as="geometry" />
        </mxCell>
        <mxCell id="9WmN0nyqYOezBfgbIUZS-28" value="" style="edgeStyle=orthogonalEdgeStyle;rounded=0;orthogonalLoop=1;jettySize=auto;html=1;entryX=0.5;entryY=0;entryDx=0;entryDy=0;entryPerimeter=0;" edge="1" parent="9WmN0nyqYOezBfgbIUZS-3" source="9WmN0nyqYOezBfgbIUZS-26" target="9WmN0nyqYOezBfgbIUZS-11">
          <mxGeometry relative="1" as="geometry">
            <mxPoint x="145" y="190" as="targetPoint" />
          </mxGeometry>
        </mxCell>
        <mxCell id="9WmN0nyqYOezBfgbIUZS-38" value="Dashboard" style="strokeWidth=2;html=1;shape=mxgraph.flowchart.display;whiteSpace=wrap;" vertex="1" parent="9WmN0nyqYOezBfgbIUZS-3">
          <mxGeometry x="15" y="670" width="90" height="50" as="geometry" />
        </mxCell>
        <mxCell id="9WmN0nyqYOezBfgbIUZS-41" value="" style="edgeStyle=orthogonalEdgeStyle;rounded=0;orthogonalLoop=1;jettySize=auto;html=1;" edge="1" parent="9WmN0nyqYOezBfgbIUZS-3" source="9WmN0nyqYOezBfgbIUZS-39" target="9WmN0nyqYOezBfgbIUZS-38">
          <mxGeometry relative="1" as="geometry">
            <Array as="points">
              <mxPoint x="60" y="640" />
              <mxPoint x="60" y="640" />
            </Array>
          </mxGeometry>
        </mxCell>
        <mxCell id="9WmN0nyqYOezBfgbIUZS-47" value="" style="edgeStyle=orthogonalEdgeStyle;rounded=0;orthogonalLoop=1;jettySize=auto;html=1;" edge="1" parent="9WmN0nyqYOezBfgbIUZS-3" source="9WmN0nyqYOezBfgbIUZS-39" target="9WmN0nyqYOezBfgbIUZS-43">
          <mxGeometry relative="1" as="geometry" />
        </mxCell>
        <mxCell id="9WmN0nyqYOezBfgbIUZS-39" value="Is &lt;br&gt;the account exist?" style="strokeWidth=2;html=1;shape=mxgraph.flowchart.decision;whiteSpace=wrap;" vertex="1" parent="9WmN0nyqYOezBfgbIUZS-3">
          <mxGeometry x="20" y="530" width="80" height="80" as="geometry" />
        </mxCell>
        <mxCell id="9WmN0nyqYOezBfgbIUZS-42" value="Yes" style="text;html=1;resizable=0;autosize=1;align=center;verticalAlign=middle;points=[];fillColor=none;strokeColor=none;rounded=0;" vertex="1" parent="9WmN0nyqYOezBfgbIUZS-3">
          <mxGeometry x="52.5" y="620" width="40" height="30" as="geometry" />
        </mxCell>
        <mxCell id="9WmN0nyqYOezBfgbIUZS-43" value="Login display&lt;br&gt;with failed notification" style="strokeWidth=2;html=1;shape=mxgraph.flowchart.display;whiteSpace=wrap;" vertex="1" parent="9WmN0nyqYOezBfgbIUZS-3">
          <mxGeometry x="160" y="537.5" width="90" height="65" as="geometry" />
        </mxCell>
        <mxCell id="9WmN0nyqYOezBfgbIUZS-48" value="No" style="text;html=1;resizable=0;autosize=1;align=center;verticalAlign=middle;points=[];fillColor=none;strokeColor=none;rounded=0;" vertex="1" parent="9WmN0nyqYOezBfgbIUZS-3">
          <mxGeometry x="105" y="540" width="40" height="30" as="geometry" />
        </mxCell>
        <mxCell id="9WmN0nyqYOezBfgbIUZS-4" value="Request Access" style="swimlane;startSize=20;" vertex="1" parent="9WmN0nyqYOezBfgbIUZS-2">
          <mxGeometry x="270" y="20" width="120" height="770" as="geometry" />
        </mxCell>
        <mxCell id="9WmN0nyqYOezBfgbIUZS-36" value="" style="edgeStyle=orthogonalEdgeStyle;rounded=0;orthogonalLoop=1;jettySize=auto;html=1;" edge="1" parent="9WmN0nyqYOezBfgbIUZS-4" source="9WmN0nyqYOezBfgbIUZS-30" target="9WmN0nyqYOezBfgbIUZS-35">
          <mxGeometry relative="1" as="geometry" />
        </mxCell>
        <mxCell id="9WmN0nyqYOezBfgbIUZS-30" value="" style="ellipse;whiteSpace=wrap;html=1;aspect=fixed;" vertex="1" parent="9WmN0nyqYOezBfgbIUZS-4">
          <mxGeometry x="45" y="30" width="30" height="30" as="geometry" />
        </mxCell>
        <mxCell id="9WmN0nyqYOezBfgbIUZS-35" value="Create&lt;br&gt;Access&lt;br&gt;Request &lt;br&gt;Display" style="strokeWidth=2;html=1;shape=mxgraph.flowchart.display;whiteSpace=wrap;" vertex="1" parent="9WmN0nyqYOezBfgbIUZS-4">
          <mxGeometry x="15" y="100" width="90" height="60" as="geometry" />
        </mxCell>
        <mxCell id="9WmN0nyqYOezBfgbIUZS-5" value="Lane 3" style="swimlane;startSize=20;" vertex="1" parent="9WmN0nyqYOezBfgbIUZS-2">
          <mxGeometry x="390" y="20" width="120" height="770" as="geometry" />
        </mxCell>
        <mxCell id="9WmN0nyqYOezBfgbIUZS-33" value="" style="edgeStyle=orthogonalEdgeStyle;rounded=0;orthogonalLoop=1;jettySize=auto;html=1;entryX=0;entryY=0.5;entryDx=0;entryDy=0;" edge="1" parent="9WmN0nyqYOezBfgbIUZS-2" source="9WmN0nyqYOezBfgbIUZS-11" target="9WmN0nyqYOezBfgbIUZS-30">
          <mxGeometry relative="1" as="geometry">
            <mxPoint x="165" y="160" as="targetPoint" />
            <Array as="points">
              <mxPoint x="180" y="250" />
              <mxPoint x="180" y="65" />
            </Array>
          </mxGeometry>
        </mxCell>
        <mxCell id="9WmN0nyqYOezBfgbIUZS-34" value="No" style="edgeLabel;html=1;align=center;verticalAlign=middle;resizable=0;points=[];" vertex="1" connectable="0" parent="9WmN0nyqYOezBfgbIUZS-33">
          <mxGeometry x="-0.7776" y="1" relative="1" as="geometry">
            <mxPoint as="offset" />
          </mxGeometry>
        </mxCell>
      </root>
    </mxGraphModel>
  </diagram>
</mxfile>
